<svg width="54" height="36" viewBox="0 0 54 36" fill="none" xmlns="http://www.w3.org/2000/svg">
<path fill-rule="evenodd" clip-rule="evenodd" d="M7.35853 21.7413C5.1261 19.6756 5.1261 16.3138 7.35853 14.2482L15.534 6.6809C17.6034 4.76864 20.8525 4.64593 23.1015 6.27698L18.3383 10.6818C13.9812 14.7134 13.9812 21.276 18.3355 25.305L19.5954 26.4683L23.4469 22.907L22.1898 21.7413C19.9518 19.6756 19.9491 16.3113 22.1898 14.2405L30.8266 6.33322C33.0756 4.64593 36.3773 4.74563 38.4633 6.6809L46.6415 14.2482C48.8739 16.3113 48.8739 19.6756 46.6415 21.7413L38.466 29.306C36.3966 31.2208 33.1475 31.341 30.8985 29.7125L35.6617 25.305C40.0188 21.276 40.0188 14.7109 35.6645 10.6818L34.4571 9.5672L30.6111 13.131L31.813 14.2456C34.0482 16.3113 34.0482 19.6782 31.813 21.7464L23.6403 29.3111C21.4051 31.3742 17.7719 31.3716 15.5367 29.3085L7.35853 21.7413ZM26.9995 33.3744C31.4205 37.0003 38.2138 36.8742 42.4564 32.963L50.702 25.354C55.0979 21.3013 55.1007 14.7003 50.702 10.645L42.4508 3.03599C38.2138 -0.875253 31.4177 -1.00383 26.9967 2.62969C22.5784 -1.00126 15.7852 -0.875253 11.5425 3.03599L3.29697 10.645C-1.09899 14.7003 -1.09899 21.2987 3.29697 25.354L11.5453 32.9656C15.7852 36.8743 22.5812 37.0028 26.9995 33.3744Z" fill="#056721"/>
</svg>
